<svg width="162" height="40" viewBox="0 0 162 40" fill="none" xmlns="http://www.w3.org/2000/svg">
<path d="M53.7005 13.5566C53.7005 11.7394 54.3941 10.3017 55.7814 9.24363C57.1919 8.16252 59.1919 7.62196 61.7815 7.62196C63.7238 7.62196 65.3539 7.84049 66.6718 8.27753V13.1771C65.2845 12.648 63.8972 12.3835 62.5099 12.3835C61.1226 12.3835 60.1861 12.5445 59.7006 12.8665C59.215 13.1886 58.9723 13.6256 58.9723 14.1777V25.5294C58.9723 26.0814 59.1457 26.507 59.4925 26.806C59.8393 27.082 60.348 27.22 61.0185 27.22C61.7122 27.22 62.244 27.128 62.6139 26.944V18.8702H67.6776V30.4289C65.8741 31.395 63.7353 31.878 61.2613 31.878C58.7873 31.878 56.9029 31.372 55.608 30.3599C54.3363 29.3478 53.7005 27.9216 53.7005 26.0814V13.5566Z" fill="white"/>
<path d="M79.2537 13.9016C79.2537 12.7515 78.5601 12.1764 77.1728 12.1764C75.8086 12.1764 75.1265 12.7515 75.1265 13.9016V25.5984C75.1265 26.7485 75.8086 27.3236 77.1728 27.3236C78.5601 27.3236 79.2537 26.7485 79.2537 25.5984V13.9016ZM69.9241 13.6256C69.9241 11.7394 70.5368 10.2442 71.7623 9.14012C72.9877 8.013 74.7912 7.44944 77.1728 7.44944C79.5543 7.44944 81.3578 8.013 82.5833 9.14012C83.8318 10.2442 84.4561 11.7394 84.4561 13.6256V25.8744C84.4561 27.7606 83.8318 29.2673 82.5833 30.3944C81.3578 31.4985 79.5543 32.0506 77.1728 32.0506C74.7912 32.0506 72.9877 31.4985 71.7623 30.3944C70.5368 29.2673 69.9241 27.7606 69.9241 25.8744V13.6256Z" fill="white"/>
<path d="M87.2397 7.79448H92.5114V27.3581H98.9277V31.7055H87.2397V7.79448Z" fill="white"/>
<path d="M100.652 7.79448H112.548V12.3145H105.924V18.2146H112.028V22.8381H105.924V31.7055H100.652V7.79448Z" fill="white"/>
<path d="M114.64 7.79448H126.814V12.28H119.843V17.352H125.877V21.8375H119.843V27.22H126.814V31.7055H114.64V7.79448Z" fill="white"/>
<path d="M134.441 23.0796V31.7055H129.238V7.79448H137.076C138.972 7.79448 140.452 8.24303 141.516 9.14012C142.579 10.0372 143.111 11.3484 143.111 13.0735V17.49C143.111 20.2503 142.163 21.9755 140.267 22.6656L144.048 31.7055H138.325L135.1 23.0796H134.441ZM134.441 12.2109V18.9737H136.487C137.019 18.9737 137.389 18.8587 137.597 18.6286C137.805 18.3986 137.909 17.9961 137.909 17.421V13.5221C137.909 13.016 137.793 12.671 137.562 12.487C137.331 12.303 136.972 12.2109 136.487 12.2109H134.441Z" fill="white"/>
<path d="M156.167 7.79448H161.3V31.7055H156.305C152.883 23.0106 150.906 17.766 150.375 15.9718C150.86 17.789 151.103 20.9174 151.103 25.3568V31.7055H145.97V7.79448H151.103L154.259 15.7993C155.6 19.2267 156.502 21.826 156.964 23.5972C156.432 21.3659 156.167 18.0996 156.167 13.7981V7.79448Z" fill="white"/>
<path fill-rule="evenodd" clip-rule="evenodd" d="M66.4713 13.1024C65.1508 12.6231 63.8304 12.3835 62.5099 12.3835C61.1226 12.3835 60.1861 12.5445 59.7006 12.8665C59.215 13.1886 58.9723 13.6256 58.9723 14.1777V25.5294C58.9723 26.0814 59.1457 26.507 59.4925 26.806C59.8393 27.082 60.348 27.22 61.0185 27.22C61.7122 27.22 62.244 27.128 62.6139 26.944V18.8702H67.6776V30.4289C65.8741 31.395 63.7353 31.878 61.2613 31.878C58.7873 31.878 56.9029 31.372 55.608 30.3599C54.3363 29.3478 53.7005 27.9216 53.7005 26.0814V13.5566C53.7005 11.7394 54.3941 10.3017 55.7814 9.24363C57.1919 8.16252 59.1919 7.62196 61.7815 7.62196C63.7238 7.62196 65.3539 7.84049 66.6718 8.27753V13.1771C66.605 13.1516 66.5381 13.1267 66.4713 13.1024ZM62.4134 26.8154V18.6707H67.8781V30.548L67.7726 30.6045C65.9344 31.5892 63.7616 32.0775 61.2613 32.0775C58.7639 32.0775 56.8282 31.5673 55.4842 30.5167L55.4828 30.5156C54.1567 29.4602 53.5 27.9729 53.5 26.0814V13.5566C53.5 11.6807 54.2201 10.1833 55.6593 9.0855C57.1175 7.96781 59.1672 7.42252 61.7815 7.42252C63.7374 7.42252 65.3905 7.64239 66.7352 8.08832L66.8723 8.13378V13.4671L66.6 13.3633C65.234 12.8423 63.8709 12.5829 62.5099 12.5829C61.823 12.5829 61.2543 12.6229 60.8012 12.7008C60.3453 12.7791 60.0212 12.8936 59.8118 13.0325C59.3786 13.3198 59.1727 13.6963 59.1727 14.1777V25.5294C59.1727 26.0351 59.329 26.3995 59.6208 26.6527C59.918 26.8877 60.3736 27.0206 61.0185 27.0206C61.627 27.0206 62.0874 26.9478 62.4134 26.8154ZM82.7178 30.5422C81.4421 31.6916 79.5824 32.25 77.1728 32.25C74.7632 32.25 72.9034 31.6916 71.6277 30.5422L71.6262 30.5408C70.3539 29.3706 69.7236 27.8079 69.7236 25.8744V13.6256C69.7236 11.6926 70.3537 10.1406 71.6269 8.99303C72.9026 7.82013 74.7627 7.25 77.1728 7.25C79.5824 7.25 81.4423 7.81991 82.7179 8.99237C84.0143 10.1395 84.6566 11.6917 84.6566 13.6256V25.8744C84.6566 27.8091 84.0137 29.3724 82.7178 30.5422ZM82.5833 9.14012C81.3578 8.013 79.5543 7.44944 77.1728 7.44944C74.7912 7.44944 72.9877 8.013 71.7623 9.14012C70.5368 10.2442 69.9241 11.7394 69.9241 13.6256V25.8744C69.9241 27.7606 70.5368 29.2673 71.7623 30.3944C72.9877 31.4985 74.7912 32.0506 77.1728 32.0506C79.5543 32.0506 81.3578 31.4985 82.5833 30.3944C83.8318 29.2673 84.4561 27.7606 84.4561 25.8744V13.6256C84.4561 11.7394 83.8318 10.2442 82.5833 9.14012ZM78.6051 12.761C78.3092 12.5157 77.8435 12.3759 77.1728 12.3759C76.5142 12.3759 76.0577 12.5154 75.7677 12.7599C75.484 12.999 75.327 13.3668 75.327 13.9016V25.5984C75.327 26.1332 75.484 26.501 75.7677 26.7401C76.0577 26.9846 76.5142 27.1241 77.1728 27.1241C77.8435 27.1241 78.3092 26.9843 78.6051 26.739C78.894 26.4995 79.0532 26.1322 79.0532 25.5984V13.9016C79.0532 13.3678 78.894 13.0005 78.6051 12.761ZM87.0392 7.59504H92.7119V27.1586H99.1282V31.905H87.0392V7.59504ZM92.5114 27.3581V7.79448H87.2397V31.7055H98.9277V27.3581H92.5114ZM100.452 7.59504H112.749V12.5139H106.124V18.0151H112.228V23.0375H106.124V31.905H100.452V7.59504ZM105.924 22.8381H112.028V18.2146H105.924V12.3145H112.548V7.79448H100.652V31.7055H105.924V22.8381ZM114.44 7.59504H127.014V12.4794H120.043V17.1526H126.078V22.0369H120.043V27.0206H127.014V31.905H114.44V7.59504ZM119.843 27.22V21.8375H125.877V17.352H119.843V12.28H126.814V7.79448H114.64V31.7055H126.814V27.22H119.843ZM138.325 31.7055L135.1 23.0796H134.441V31.7055H129.238V7.79448H137.076C138.972 7.79448 140.452 8.24303 141.516 9.14012C142.579 10.0372 143.111 11.3484 143.111 13.0735V17.49C143.111 20.1581 142.225 21.8591 140.454 22.593C140.393 22.6183 140.331 22.6425 140.267 22.6656L144.048 31.7055H138.325ZM140.531 22.7771C141.427 22.4058 142.111 21.7955 142.576 20.9498C143.071 20.0484 143.312 18.8908 143.312 17.49V13.0735C143.312 11.3053 142.765 9.93199 141.645 8.988C140.534 8.0509 139.003 7.59504 137.076 7.59504H129.038V31.905H134.641V23.279H134.96L138.186 31.905H144.348L140.531 22.7771ZM134.441 18.9737V12.2109H136.487C136.972 12.2109 137.331 12.303 137.562 12.487C137.793 12.671 137.909 13.016 137.909 13.5221V17.421C137.909 17.9961 137.805 18.3986 137.597 18.6286C137.389 18.8587 137.019 18.9737 136.487 18.9737H134.441ZM134.641 12.4104V18.7742H136.487C137 18.7742 137.297 18.6614 137.448 18.4952C137.604 18.3224 137.708 17.9843 137.708 17.421V13.5221C137.708 13.0346 137.595 12.7687 137.437 12.6427C137.258 12.5001 136.954 12.4104 136.487 12.4104H134.641ZM155.966 7.59504H161.5V31.905H156.168L156.119 31.7782C153.686 25.5975 151.981 21.1547 151.007 18.4548C151.205 20.2315 151.303 22.5338 151.303 25.3568V31.905H145.769V7.59504H151.24L154.446 15.7265L154.446 15.727C155.193 17.637 155.805 19.2924 156.281 20.6923C156.071 18.7975 155.966 16.4986 155.966 13.7981V7.59504ZM156.608 21.6807C156.709 22.3873 156.828 23.0261 156.964 23.5972C156.822 23.0518 156.638 22.4279 156.412 21.7255C155.905 20.1468 155.187 18.1714 154.259 15.7993L151.103 7.79448H145.97V31.7055H151.103V25.3568C151.103 22.0185 150.966 19.4215 150.691 17.5659C150.6 16.9539 150.495 16.4226 150.375 15.9718C150.484 16.3411 150.655 16.8565 150.886 17.5181C151.781 20.071 153.588 24.8001 156.305 31.7055H161.3V7.79448H156.167V13.7981C156.167 16.9987 156.314 19.6263 156.608 21.6807ZM77.1728 12.1764C78.5601 12.1764 79.2537 12.7515 79.2537 13.9016V25.5984C79.2537 26.7485 78.5601 27.3236 77.1728 27.3236C75.8086 27.3236 75.1265 26.7485 75.1265 25.5984V13.9016C75.1265 12.7515 75.8086 12.1764 77.1728 12.1764Z" fill="white"/>
<path fill-rule="evenodd" clip-rule="evenodd" d="M47.5 23.233C47.4969 23.8429 47.0859 24.3751 46.497 24.5318L25.9795 29.9917C25.5516 30.1056 25.0952 30.0022 24.7579 29.7151C24.4207 29.428 24.2456 28.9936 24.2893 28.5527L25.3651 17.7097C25.4045 17.3132 25.6168 16.9543 25.9452 16.729C26.2736 16.5037 26.6847 16.435 27.0684 16.5412L46.51 21.9243C47.0974 22.0869 47.503 22.6232 47.5 23.233Z" fill="white"/>
<path d="M26.7238 18.9853L25.7297 27.2852C25.6478 27.9689 26.2654 28.5289 26.9379 28.3806L30.7524 27.5397C31.2925 27.4206 31.6334 26.8858 31.5133 26.3459L29.9158 19.1675C29.832 18.791 29.5392 18.4963 29.1633 18.41L27.9402 18.1295C27.361 17.9966 26.7944 18.3952 26.7238 18.9853Z" fill="#CAE1FF"/>
<path fill-rule="evenodd" clip-rule="evenodd" d="M2.4934 5.81912C2.82332 5.58644 3.23998 5.51371 3.62915 5.62086L29.6025 12.7726C30.239 12.9479 30.6554 13.558 30.5871 14.2151L29.4344 25.2887C29.3771 25.8392 28.99 26.2991 28.4577 26.4491L1.71584 33.9853C1.29191 34.1048 0.83641 34.0098 0.495457 33.7308C0.154504 33.4519 -0.0290246 33.024 0.0037507 32.5845L1.92486 6.82282C1.9549 6.42002 2.16347 6.05181 2.4934 5.81912Z" fill="white"/>
<path d="M39.2191 29.4854C35.8253 35.4658 29.4034 39.5 22.0399 39.5C17.1568 39.5 12.6877 37.7259 9.24128 34.7866C8.66195 34.2925 8.89859 33.38 9.63145 33.1735L22.1524 29.6449C22.6892 29.4936 23.2339 29.8295 23.5652 30.2781C23.6868 30.4427 23.8279 30.5947 23.9871 30.7302C24.6616 31.3044 25.5745 31.5112 26.4303 31.2834L38.1436 28.1664C38.9523 27.9512 39.6321 28.7576 39.2191 29.4854Z" fill="#ED2F58"/>
<path d="M21.9236 0C32.1775 0 40.6056 7.82289 41.5734 17.8301C41.6382 18.4999 41.0013 19.0008 40.3529 18.8212L32.5171 16.6516C32.0464 16.5213 31.7387 16.0701 31.7893 15.5844L31.9173 14.355C32.054 13.0409 31.2211 11.8206 29.9482 11.4701L9.95456 5.96488C9.20658 5.75893 8.97478 4.82278 9.57978 4.33713C12.9604 1.62338 17.2526 0 21.9236 0Z" fill="#ED2F58"/>
</svg>
