<svg width="120" height="30" viewBox="0 0 120 30" fill="none" xmlns="http://www.w3.org/2000/svg">
<path fill-rule="evenodd" clip-rule="evenodd" d="M29.8579 14.929C29.8579 23.174 23.174 29.8579 14.929 29.8579C11.0319 29.8579 7.48362 28.3647 4.82501 25.9193C7.39709 18.9754 9.64882 16.5822 13.3158 13.9555C15.6699 12.2693 18.5833 10.7094 22.2283 9.11092C27.07 6.98756 17.5716 7.01252 6.6534 7.29774C5.15959 12.1891 4.30333 17.2529 4.10583 22.3635L4.00011 25.0993C1.51823 22.4335 0 18.8585 0 14.929C0 6.68393 6.68393 0 14.929 0C23.174 0 29.8579 6.68393 29.8579 14.929ZM12.9616 15.0831C14.7478 13.663 16.7048 12.5736 18.3098 11.8071C20.228 10.8912 22.3756 10.9839 24.5065 11.0759C24.7463 11.0862 24.9858 11.0966 25.2248 11.1055C25.4053 11.1122 25.5622 11.2182 25.568 11.3987C25.5873 12.0099 25.3172 13.2723 25.0589 14.4794C24.8867 15.2837 24.7199 16.0634 24.6474 16.6096C24.3488 18.2811 22.6711 20.1905 20.9733 20.2099C20.178 20.2191 19.2711 20.3117 18.2361 20.5379C17.6046 20.6759 16.8425 20.8669 16.0216 21.0725C12.1798 22.0349 7.05086 23.3197 7.99778 21.0133C7.99778 21.0133 9.02477 18.213 12.9616 15.0831Z" fill="white"/>
<path d="M34.7784 9.9506C34.7784 8.50646 35.3268 7.36393 36.4236 6.52304C37.5387 5.66386 39.12 5.23427 41.1674 5.23427C42.7029 5.23427 43.9917 5.40793 45.0337 5.75526V9.64898C43.9368 9.22853 42.84 9.01831 41.7432 9.01831C40.6464 9.01831 39.906 9.14627 39.5221 9.4022C39.1382 9.65812 38.9463 10.0054 38.9463 10.4442V19.4655C38.9463 19.9043 39.0834 20.2425 39.3576 20.4801C39.6318 20.6995 40.034 20.8091 40.5641 20.8091C41.1125 20.8091 41.533 20.736 41.8255 20.5898V14.1734H45.8289V23.3593C44.403 24.127 42.7121 24.5109 40.7561 24.5109C38.8001 24.5109 37.3102 24.1088 36.2865 23.3044C35.2811 22.5001 34.7784 21.3667 34.7784 19.9043V9.9506Z" fill="white"/>
<path d="M54.9811 10.2248C54.9811 9.31079 54.4327 8.85378 53.3359 8.85378C52.2573 8.85378 51.7181 9.31079 51.7181 10.2248V19.5204C51.7181 20.4344 52.2573 20.8914 53.3359 20.8914C54.4327 20.8914 54.9811 20.4344 54.9811 19.5204V10.2248ZM47.605 10.0054C47.605 8.50646 48.0894 7.31823 49.0583 6.44077C50.0271 5.54504 51.453 5.09717 53.3359 5.09717C55.2188 5.09717 56.6446 5.54504 57.6135 6.44077C58.6006 7.31823 59.0942 8.50646 59.0942 10.0054V19.7397C59.0942 21.2387 58.6006 22.4361 57.6135 23.3318C56.6446 24.2093 55.2188 24.648 53.3359 24.648C51.453 24.648 50.0271 24.2093 49.0583 23.3318C48.0894 22.4361 47.605 21.2387 47.605 19.7397V10.0054Z" fill="white"/>
<path d="M61.2949 5.37137H65.4628V20.9188H70.5356V24.3738H61.2949V5.37137Z" fill="white"/>
<path d="M71.899 5.37137H81.3042V8.96347H76.0669V13.6524H80.8929V17.3267H76.0669V24.3738H71.899V5.37137Z" fill="white"/>
<path d="M82.9582 5.37137H92.5828V8.93604H87.0713V12.9669H91.8425V16.5315H87.0713V20.8091H92.5828V24.3738H82.9582V5.37137Z" fill="white"/>
<path d="M98.6126 17.5187V24.3738H94.4995V5.37137H100.697C102.196 5.37137 103.365 5.72784 104.206 6.44077C105.047 7.15371 105.468 8.19569 105.468 9.56672V13.0765C105.468 15.2702 104.718 16.6412 103.219 17.1896L106.208 24.3738H101.684L99.1336 17.5187H98.6126ZM98.6126 8.8812V14.2556H100.23C100.651 14.2556 100.943 14.1642 101.108 13.9814C101.272 13.7986 101.355 13.4787 101.355 13.0217V9.92319C101.355 9.52102 101.263 9.24681 101.08 9.10057C100.898 8.95433 100.614 8.8812 100.23 8.8812H98.6126Z" fill="white"/>
<path d="M115.789 5.37137H119.848V24.3738H115.899C113.194 17.4638 111.631 13.2959 111.21 11.87C111.594 13.3142 111.786 15.8003 111.786 19.3284V24.3738H107.728V5.37137H111.786L114.281 11.7329C115.342 14.4567 116.054 16.5224 116.42 17.93C116 16.1568 115.789 13.561 115.789 10.1425V5.37137Z" fill="white"/>
<path fill-rule="evenodd" clip-rule="evenodd" d="M44.8813 9.59193C43.8353 9.20951 42.7892 9.0183 41.7432 9.0183C40.6464 9.0183 39.906 9.14626 39.5221 9.40219C39.1382 9.65811 38.9463 10.0054 38.9463 10.4442V19.4655C38.9463 19.9043 39.0834 20.2424 39.3576 20.4801C39.6318 20.6995 40.034 20.8091 40.5641 20.8091C41.1125 20.8091 41.533 20.736 41.8255 20.5898V14.1734H45.8289V23.3592C44.403 24.127 42.7121 24.5109 40.7561 24.5109C38.8001 24.5109 37.3102 24.1087 36.2865 23.3044C35.2811 22.5001 34.7784 21.3667 34.7784 19.9043V9.9506C34.7784 8.50645 35.3268 7.36393 36.4236 6.52303C37.5387 5.66385 39.12 5.23426 41.1674 5.23426C42.7029 5.23426 43.9917 5.40793 45.0337 5.75525V9.64897C44.9829 9.62951 44.9321 9.61049 44.8813 9.59193ZM36.3308 6.40225C37.4822 5.51513 39.1012 5.08193 41.1674 5.08193C42.7133 5.08193 44.0195 5.25662 45.0818 5.61073L45.186 5.64546V9.87051L44.9791 9.79122C43.8985 9.37696 42.8201 9.17064 41.7432 9.17064C41.1999 9.17064 40.7499 9.20239 40.3913 9.26438C40.0304 9.32674 39.7732 9.41788 39.6066 9.52894C39.2625 9.75835 39.0986 10.0594 39.0986 10.4442V19.4655C39.0986 19.8689 39.2227 20.1604 39.4551 20.363C39.6916 20.551 40.0534 20.6568 40.5641 20.6568C41.0479 20.6568 41.414 20.5984 41.6731 20.4917V14.021H45.9812V23.4502L45.9011 23.4934C44.4488 24.2753 42.7321 24.6632 40.7561 24.6632C38.7823 24.6632 37.2535 24.2579 36.1924 23.4242L36.1913 23.4234C35.1446 22.586 34.626 21.4059 34.626 19.9043V9.9506C34.626 8.46161 35.1945 7.27344 36.3308 6.40225ZM57.7157 23.4447C56.7087 24.3568 55.2401 24.8004 53.3359 24.8004C51.4317 24.8004 49.9631 24.3568 48.956 23.4447L48.9548 23.4437C47.9504 22.5151 47.4526 21.2748 47.4526 19.7397V10.0054C47.4526 8.47068 47.9503 7.23901 48.9555 6.32836C49.9625 5.39769 51.4313 4.94482 53.3359 4.94482C55.2401 4.94482 56.7088 5.39754 57.7158 6.32791C58.7393 7.23825 59.2465 8.47002 59.2465 10.0054V19.7397C59.2465 21.2758 58.7388 22.5164 57.7157 23.4447ZM57.6135 6.44077C56.6446 5.54503 55.2188 5.09716 53.3359 5.09716C51.453 5.09716 50.0271 5.54503 49.0583 6.44077C48.0894 7.31822 47.605 8.50645 47.605 10.0054V19.7397C47.605 21.2387 48.0894 22.4361 49.0583 23.3318C50.0271 24.2093 51.453 24.648 53.3359 24.648C55.2188 24.648 56.6446 24.2093 57.6135 23.3318C58.6006 22.4361 59.0942 21.2387 59.0942 19.7397V10.0054C59.0942 8.50645 58.6006 7.31822 57.6135 6.44077ZM54.4723 9.31356C54.2368 9.11731 53.8669 9.00611 53.3359 9.00611C52.8145 9.00611 52.4519 9.11711 52.221 9.31275C51.995 9.5043 51.8704 9.79849 51.8704 10.2248V19.5204C51.8704 19.9467 51.995 20.2409 52.221 20.4324C52.4519 20.6281 52.8145 20.7391 53.3359 20.7391C53.8669 20.7391 54.2368 20.6279 54.4723 20.4316C54.7025 20.2398 54.8288 19.9459 54.8288 19.5204V10.2248C54.8288 9.79932 54.7025 9.50537 54.4723 9.31356ZM61.1426 5.21903H65.6152V20.7665H70.688V24.5261H61.1426V5.21903ZM65.4628 20.9188V5.37137H61.2949V24.3738H70.5356V20.9188H65.4628ZM71.7466 5.21903H81.4565V9.11579H76.2192V13.5H81.0452V17.4791H76.2192V24.5261H71.7466V5.21903ZM76.0669 17.3267H80.8929V13.6524H76.0669V8.96346H81.3042V5.37137H71.8989V24.3738H76.0669V17.3267ZM82.8059 5.21903H92.7352V9.08837H87.2236V12.8145H91.9948V16.6839H87.2236V20.6568H92.7352V24.5261H82.8059V5.21903ZM87.0713 20.8091V16.5315H91.8425V12.9669H87.0713V8.93604H92.5828V5.37137H82.9582V24.3738H92.5828V20.8091H87.0713ZM101.684 24.3738L99.1336 17.5187H98.6126V24.3738H94.4995V5.37137H100.697C102.196 5.37137 103.365 5.72783 104.206 6.44077C105.047 7.1537 105.468 8.19568 105.468 9.56671V13.0765C105.468 15.1998 104.766 16.5524 103.361 17.1343C103.315 17.1536 103.267 17.172 103.219 17.1896L106.208 24.3738H101.684ZM103.42 17.2749C104.13 16.9806 104.672 16.4958 105.039 15.8231C105.43 15.108 105.62 14.1892 105.62 13.0765V9.56671C105.62 8.16278 105.188 7.07333 104.305 6.32457C103.428 5.58109 102.219 5.21903 100.697 5.21903H94.3471V24.5261H98.7649V17.671H99.0277L101.578 24.5261H106.436L103.42 17.2749ZM98.6126 14.2556V8.8812H100.23C100.614 8.8812 100.898 8.95432 101.08 9.10056C101.263 9.2468 101.355 9.52101 101.355 9.92318V13.0217C101.355 13.4787 101.272 13.7986 101.108 13.9814C100.943 14.1642 100.651 14.2556 100.23 14.2556H98.6126ZM98.7649 9.03353V14.1033H100.23C100.637 14.1033 100.874 14.0136 100.995 13.8795C101.12 13.7404 101.202 13.4697 101.202 13.0217V9.92318C101.202 9.53517 101.113 9.32145 100.985 9.21951C100.842 9.1049 100.6 9.03353 100.23 9.03353H98.7649ZM115.637 5.21903H120V24.5261H115.795L115.757 24.4293C113.819 19.4792 112.466 15.932 111.699 13.7916C111.859 15.2101 111.938 17.057 111.938 19.3284V24.5261H107.575V5.21903H111.89L114.423 11.6773L114.423 11.6777C115.024 13.2203 115.514 14.5539 115.892 15.6777C115.722 14.1614 115.637 12.3157 115.637 10.1425V5.21903ZM116.144 16.4439C116.223 16.9908 116.315 17.4861 116.42 17.93C116.31 17.5058 116.168 17.0219 115.995 16.4782C115.593 15.2176 115.022 13.6359 114.281 11.7329L111.786 5.37137H107.728V24.3738H111.786V19.3284C111.786 16.6557 111.676 14.581 111.456 13.1042C111.385 12.6316 111.303 12.2202 111.21 11.87C111.295 12.1577 111.426 12.5568 111.604 13.0676C112.308 15.0889 113.739 18.8577 115.899 24.3738H119.848V5.37137H115.789V10.1425C115.789 12.7053 115.908 14.8058 116.144 16.4439ZM53.3359 8.85378C54.4327 8.85378 54.9811 9.31078 54.9811 10.2248V19.5204C54.9811 20.4344 54.4327 20.8914 53.3359 20.8914C52.2573 20.8914 51.7181 20.4344 51.7181 19.5204V10.2248C51.7181 9.31078 52.2573 8.85378 53.3359 8.85378Z" fill="white"/>
</svg>
