<svg width="646" height="158" viewBox="0 0 646 158" fill="none" xmlns="http://www.w3.org/2000/svg">
<path d="M214.802 54.2264C214.802 46.9576 217.577 41.207 223.126 36.9745C228.768 32.6501 236.768 30.4878 247.126 30.4878C254.895 30.4878 261.415 31.3619 266.687 33.1101V52.7082C261.138 50.592 255.589 49.5339 250.04 49.5339C244.49 49.5339 240.745 50.1779 238.802 51.4661C236.86 52.7542 235.889 54.5024 235.889 56.7106V102.117C235.889 104.326 236.583 106.028 237.97 107.224C239.357 108.328 241.392 108.88 244.074 108.88C246.849 108.88 248.976 108.512 250.456 107.776V75.4806H270.71V121.716C263.496 125.58 254.941 127.512 245.045 127.512C235.149 127.512 227.611 125.488 222.432 121.44C217.345 117.391 214.802 111.686 214.802 104.326V54.2264Z" fill="#2F80ED"/>
<path d="M317.015 55.6065C317.015 51.006 314.24 48.7058 308.691 48.7058C303.234 48.7058 300.506 51.006 300.506 55.6065V102.393C300.506 106.994 303.234 109.294 308.691 109.294C314.24 109.294 317.015 106.994 317.015 102.393V55.6065ZM279.696 54.5024C279.696 46.9576 282.147 40.977 287.049 36.5605C291.951 32.052 299.165 29.7978 308.691 29.7978C318.217 29.7978 325.431 32.052 330.333 36.5605C335.327 40.977 337.825 46.9576 337.825 54.5024V103.498C337.825 111.042 335.327 117.069 330.333 121.578C325.431 125.994 318.217 128.202 308.691 128.202C299.165 128.202 291.951 125.994 287.049 121.578C282.147 117.069 279.696 111.042 279.696 103.498V54.5024Z" fill="#2F80ED"/>
<path d="M348.959 31.1779H370.046V109.432H395.711V126.822H348.959V31.1779Z" fill="#2F80ED"/>
<path d="M402.608 31.1779H450.193V49.2578H423.695V72.8583H448.112V91.3523H423.695V126.822H402.608V31.1779Z" fill="#2F80ED"/>
<path d="M458.561 31.1779H507.256V49.1198H479.371V69.408H503.51V87.3499H479.371V108.88H507.256V126.822H458.561V31.1779Z" fill="#2F80ED"/>
<path d="M537.762 92.3184V126.822H516.953V31.1779H548.306C555.89 31.1779 561.809 32.9721 566.063 36.5605C570.318 40.1489 572.445 45.3934 572.445 52.2942V69.96C572.445 81.0012 568.653 87.902 561.069 90.6622L576.191 126.822H553.3L540.398 92.3184H537.762ZM537.762 48.8438V75.8947H545.947C548.075 75.8947 549.554 75.4346 550.387 74.5145C551.219 73.5944 551.635 71.9843 551.635 69.684V54.0884C551.635 52.0641 551.173 50.684 550.248 49.9479C549.323 49.2118 547.89 48.8438 545.947 48.8438H537.762Z" fill="#2F80ED"/>
<path d="M624.666 31.1779H645.198V126.822H625.221C611.533 92.0424 603.625 71.0642 601.498 63.8874C603.44 71.1562 604.411 83.6695 604.411 101.427V126.822H583.879V31.1779H604.411L617.036 63.1973C622.4 76.9068 626.007 87.3039 627.857 94.3886C625.73 85.4637 624.666 72.3983 624.666 55.1925V31.1779Z" fill="#2F80ED"/>
<path fill-rule="evenodd" clip-rule="evenodd" d="M265.885 52.4098C260.603 50.4925 255.321 49.5339 250.04 49.5339C244.49 49.5339 240.745 50.1779 238.802 51.4661C236.86 52.7542 235.889 54.5024 235.889 56.7106V102.117C235.889 104.326 236.583 106.028 237.97 107.224C239.357 108.328 241.392 108.88 244.074 108.88C246.849 108.88 248.976 108.512 250.456 107.776V75.4806H270.71V121.716C263.496 125.58 254.941 127.512 245.045 127.512C235.149 127.512 227.611 125.488 222.432 121.44C217.345 117.391 214.802 111.686 214.802 104.326V54.2264C214.802 46.9576 217.577 41.207 223.126 36.9745C228.768 32.6501 236.768 30.4878 247.126 30.4878C254.895 30.4878 261.415 31.3619 266.687 33.1101V52.7082C266.42 52.6063 266.153 52.5068 265.885 52.4098ZM249.654 107.262V74.6829H271.512V122.192L271.09 122.418C263.738 126.357 255.047 128.31 245.045 128.31C235.056 128.31 227.313 126.269 221.937 122.067L221.931 122.062C216.627 117.841 214 111.892 214 104.326V54.2264C214 46.7228 216.88 40.7331 222.637 36.342C228.47 31.8713 236.669 29.6901 247.126 29.6901C254.95 29.6901 261.562 30.5696 266.941 32.3533L267.489 32.5351V53.8684L266.4 53.4531C260.936 51.3693 255.484 50.3316 250.039 50.3316C247.292 50.3316 245.017 50.4914 243.205 50.803C241.381 51.1166 240.085 51.5743 239.247 52.1299C237.514 53.2792 236.691 54.7852 236.691 56.7106V102.117C236.691 104.14 237.316 105.598 238.483 106.611C239.672 107.551 241.494 108.082 244.074 108.082C246.508 108.082 248.349 107.791 249.654 107.262ZM330.871 122.169C325.768 126.767 318.329 129 308.691 129C299.053 129 291.614 126.767 286.511 122.169L286.505 122.163C281.416 117.483 278.894 111.231 278.894 103.498V54.5024C278.894 46.7704 281.415 40.5624 286.507 35.9721C291.61 31.2805 299.051 29 308.691 29C318.33 29 325.769 31.2797 330.872 35.9695C336.057 40.5581 338.626 46.7668 338.626 54.5024V103.498C338.626 111.236 336.055 117.489 330.871 122.169ZM330.333 36.5605C325.431 32.052 318.217 29.7978 308.691 29.7978C299.165 29.7978 291.951 32.052 287.049 36.5605C282.147 40.977 279.696 46.9576 279.696 54.5024V103.498C279.696 111.042 282.147 117.069 287.049 121.578C291.951 125.994 299.165 128.202 308.691 128.202C318.217 128.202 325.431 125.994 330.333 121.578C335.327 117.069 337.825 111.042 337.825 103.498V54.5024C337.825 46.9576 335.327 40.977 330.333 36.5605ZM314.421 51.0438C313.237 50.0626 311.374 49.5036 308.691 49.5036C306.057 49.5036 304.231 50.0615 303.071 51.0396C301.936 51.9962 301.308 53.467 301.308 55.6065V102.393C301.308 104.533 301.936 106.004 303.071 106.96C304.231 107.938 306.057 108.496 308.691 108.496C311.374 108.496 313.237 107.937 314.421 106.956C315.576 105.998 316.213 104.529 316.213 102.393V55.6065C316.213 53.4714 315.576 52.0018 314.421 51.0438ZM348.157 30.3801H370.848V108.634H396.513V127.62H348.157V30.3801ZM370.046 109.432V31.1779H348.959V126.822H395.711V109.432H370.046ZM401.806 30.3801H450.995V50.0556H424.497V72.0606H448.914V92.1501H424.497V127.62H401.806V30.3801ZM423.695 91.3523H448.112V72.8583H423.695V49.2578H450.193V31.1779H402.608V126.822H423.695V91.3523ZM457.759 30.3801H508.057V49.9176H480.173V68.6102H504.312V88.1477H480.173V108.082H508.057V127.62H457.759V30.3801ZM479.371 108.88V87.3499H503.51V69.408H479.371V49.1198H507.256V31.1779H458.561V126.822H507.256V108.88H479.371ZM553.3 126.822L540.398 92.3184H537.762V126.822H516.953V31.1779H548.306C555.89 31.1779 561.809 32.9721 566.063 36.5605C570.318 40.1489 572.445 45.3934 572.445 52.2942V69.96C572.445 80.6325 568.902 87.4364 561.816 90.3719C561.571 90.4733 561.322 90.5701 561.069 90.6622L576.191 126.822H553.3ZM562.124 91.1084C565.709 89.6232 568.446 87.1821 570.304 83.7991C572.286 80.1936 573.247 75.5633 573.247 69.96V52.2942C573.247 45.2211 571.059 39.728 566.582 35.952C562.138 32.2036 556.011 30.3801 548.306 30.3801H516.151V127.62H538.564V93.1162H539.841L552.743 127.62H577.393L562.124 91.1084ZM537.762 75.8947V48.8438H545.947C547.89 48.8438 549.323 49.2118 550.248 49.9479C551.173 50.684 551.635 52.0641 551.635 54.0884V69.684C551.635 71.9843 551.219 73.5944 550.387 74.5145C549.554 75.4346 548.075 75.8947 545.947 75.8947H537.762ZM538.564 49.6416V75.0969H545.947C548 75.0969 549.189 74.6457 549.791 73.9808C550.416 73.2897 550.833 71.9371 550.833 69.684V54.0884C550.833 52.1383 550.38 51.0749 549.747 50.5709C549.03 50.0004 547.815 49.6416 545.947 49.6416H538.564ZM623.864 30.3801H646V127.62H624.674L624.474 127.113C614.744 102.39 607.926 84.6188 604.03 73.8194C604.822 80.926 605.213 90.1351 605.213 101.427V127.62H583.077V30.3801H604.958L617.782 62.906L617.783 62.9079C620.773 70.5481 623.22 77.1697 625.124 82.7694C624.282 75.1898 623.864 65.9943 623.864 55.1925V30.3801ZM626.433 86.7228C626.838 89.5493 627.313 92.1046 627.857 94.3886C627.287 92.2072 626.551 89.7116 625.648 86.9021C623.619 80.5871 620.748 72.6855 617.036 63.1973L604.411 31.1779H583.879V126.822H604.411V101.427C604.411 88.0739 603.862 77.686 602.764 70.2638C602.402 67.8157 601.98 65.6902 601.498 63.8874C601.936 65.3645 602.618 67.4261 603.546 70.0724C607.125 80.2839 614.35 99.2004 625.221 126.822H645.198V31.1779H624.666V55.1925C624.666 67.995 625.255 78.5051 626.433 86.7228ZM308.691 48.7058C314.24 48.7058 317.015 51.006 317.015 55.6065V102.393C317.015 106.994 314.24 109.294 308.691 109.294C303.234 109.294 300.506 106.994 300.506 102.393V55.6065C300.506 51.006 303.234 48.7058 308.691 48.7058Z" fill="#2F80ED"/>
<path fill-rule="evenodd" clip-rule="evenodd" d="M185.988 98.1272C188.344 97.5003 189.988 95.3716 190 92.9322C190.012 90.4927 188.39 88.3476 186.04 87.6971L108.274 66.165C106.739 65.74 105.094 66.0148 103.781 66.9161C102.467 67.8173 101.618 69.2529 101.461 70.839L97.1573 114.211C96.9823 115.975 97.6827 117.712 99.0317 118.861C100.381 120.009 102.207 120.422 103.918 119.967L185.988 98.1272ZM106.834 71.3729L102.531 114.745L102.531 114.745L106.834 71.3731L106.834 71.3729Z" fill="#2F80ED"/>
<path d="M106.895 75.9412L102.919 109.141C102.591 111.876 105.061 114.116 107.751 113.523L123.009 110.159C125.17 109.683 126.533 107.543 126.053 105.384L119.663 76.6701C119.328 75.1642 118.156 73.9852 116.653 73.6403L111.761 72.5181C109.444 71.9866 107.177 73.581 106.895 75.9412Z" fill="#115DC2"/>
<path fill-rule="evenodd" clip-rule="evenodd" d="M14.5166 22.4834C12.9599 22.0548 11.2933 22.3458 9.97358 23.2765C8.65388 24.2072 7.81959 25.6801 7.69943 27.2913L0.0150028 130.338C-0.116098 132.096 0.618015 133.808 1.98183 134.923C3.34564 136.039 5.16766 136.419 6.86334 135.941L113.831 105.796C115.96 105.196 117.508 103.357 117.738 101.155L122.348 56.8603C122.622 54.2321 120.956 51.7914 118.41 51.0904L14.5166 22.4834ZM5.40002 130.74L5.39968 130.74L13.0841 27.6934L13.0845 27.6934L5.40002 130.74Z" fill="#2F80ED"/>
<path d="M156.876 117.942C143.301 141.863 117.613 158 88.1593 158C68.6269 158 50.7507 150.904 36.9649 139.146C34.6476 137.17 35.5941 133.52 38.5256 132.694L88.6095 118.58C90.7564 117.974 92.9355 119.318 94.2605 121.112C94.7468 121.771 95.3113 122.379 95.9481 122.921C98.646 125.218 102.298 126.045 105.721 125.134L152.574 112.666C155.809 111.805 158.528 115.031 156.876 117.942Z" fill="#ED2F58"/>
<path d="M87.6947 0C128.71 0 162.422 31.2916 166.294 71.3205C166.553 73.9995 164.005 76.0032 161.412 75.285L130.068 66.6066C128.186 66.0853 126.955 64.2805 127.157 62.3375L127.669 57.4201C128.216 52.1638 124.885 47.2824 119.793 45.8804L39.8184 23.8595C36.8264 23.0357 35.8992 19.2911 38.3192 17.3485C51.8418 6.49354 69.0105 0 87.6947 0Z" fill="#ED2F58"/>
</svg>
